<svg xmlns="http://www.w3.org/2000/svg" xmlns:xlink="http://www.w3.org/1999/xlink" viewBox="0 0 640 640" width="500" height="500"><defs><path d="M419.55 105.42c48.34 24.87 46.61 124.78-3.87 223.15S285.09 486.53 236.75 461.66c-48.35-24.87-46.62-124.78 3.86-223.15S371.2 80.55 419.55 105.42z" id="a"/><path d="M524.23 295.41c0 54.42-89.55 98.54-200 98.54-110.46 0-200-44.12-200-98.54 0-54.42 89.54-98.54 200-98.54 110.45 0 200 44.12 200 98.54z" id="b"/><path d="M326.03 230.99c-34.53 0-62.53 28.03-62.53 62.61s28 62.62 62.53 62.62c34.54 0 62.54-28.04 62.54-62.62s-28-62.61-62.54-62.61z" id="c"/></defs><use xlink:href="#a" fill-opacity="0"/><use xlink:href="#a" fill-opacity="0" stroke="#3c3f35" stroke-width="10"/><use xlink:href="#b" fill-opacity="0"/><use xlink:href="#b" fill-opacity="0" stroke="#4c4c4c" stroke-width="10"/><use xlink:href="#c" fill="#3c3f35"/><use xlink:href="#c" fill-opacity="0" stroke="#3c3f35" stroke-width="null"/></svg>