<svg data-name="Layer 1" xmlns="http://www.w3.org/2000/svg" width="923.8" height="753.71" viewBox="0 0 923.8 753.71"><ellipse cx="1007.29" cy="789.73" rx="19.99" ry="48.53" transform="rotate(-45 849.945 919.851)" fill="#829b47" opacity=".1"/><ellipse cx="872.63" cy="705.7" rx="10.73" ry="14.05" fill="#3f3d56"/><ellipse cx="872.63" cy="688.53" rx="10.73" ry="14.05" fill="#3f3d56"/><ellipse cx="872.63" cy="671.36" rx="10.73" ry="14.05" fill="#3f3d56"/><ellipse cx="872.63" cy="654.19" rx="10.73" ry="14.05" fill="#3f3d56"/><ellipse cx="872.63" cy="637.02" rx="10.73" ry="14.05" fill="#3f3d56"/><ellipse cx="872.63" cy="619.85" rx="10.73" ry="14.05" fill="#3f3d56"/><ellipse cx="872.63" cy="602.68" rx="10.73" ry="14.05" fill="#3f3d56"/><path d="M912.8 485.18a51.13 51.13 0 004-5.88l-28.2-4.63 30.5.22a51.54 51.54 0 001-40.73l-40.91 21.23 37.71-27.74a51.41 51.41 0 10-84.9 57.53 51.16 51.16 0 00-5.86 9.37l36.6 19-39-13.1a51.45 51.45 0 008.29 48.27 51.4 51.4 0 1080.8 0 51.41 51.41 0 000-63.56z" fill="#829b47"/><path d="M821 516.96a51.16 51.16 0 0011 31.78 51.4 51.4 0 1080.8 0c6.89-8.74-91.8-37.55-91.8-31.78z" opacity=".1"/><path fill="#444053" d="M846.97 0v720l-244-34-296.61 60.51-2.39.49-236-65V56l245-56 268 56 10.19-2.15L846.97 0z"/><path fill="#fff" d="M805.97 39.32v644.21l-218.31-30.42-265.39 54.14-2.14.43-211.16-58.15V89.42l219.22-50.1 239.78 50.1 9.12-1.92 228.88-48.18z"/><path opacity=".1" d="M602.97 686l-296.61 60.51L312.97 0l268 56 10.19-2.15L602.97 686z"/><g opacity=".3" fill="none" stroke="#444053" stroke-miterlimit="10" stroke-width="3"><path d="M573.35 138l.12 209.5h87v-86h149l17.5-22.44m-738-34.56h323.5l20-9h8v202h140l6 18v91h108V619m-211.27 0V397.5m343.77 162.16H483.2M740.87 138v481M87.97 517.14h739M177.91 619V138m171.78 0v481M88.97 259.5l571.5 2M255.3 138.87V619"/><path d="M87.97 370.82h261.72L483.2 517.14M512.12 138v259.5m-28.92 46.48h343.77"/></g><path fill="#829b47" d="M585.97 442h-101v-44l95.5-.5 6 17-.5 27.5z"/><path d="M535.97 214a55.28 55.28 0 00-55.28 55.28c0 30.53 55.28 129.72 55.28 129.72s55.28-99.15 55.28-129.72A55.28 55.28 0 00535.97 214zm0 78.86a24.32 24.32 0 1124.32-24.32 24.32 24.32 0 01-24.32 24.31z" fill="#829b47"/><path d="M535.97 214a55.28 55.28 0 00-55.28 55.28c0 30.53 55.28 129.72 55.28 129.72s55.28-99.15 55.28-129.72A55.28 55.28 0 00535.97 214zm0 78.86a24.32 24.32 0 1124.32-24.32 24.32 24.32 0 01-24.32 24.31z" opacity=".1"/><path d="M535.97 222a55.28 55.28 0 00-55.28 55.28c0 30.53 55.28 129.72 55.28 129.72s55.28-99.15 55.28-129.72A55.28 55.28 0 00535.97 222zm0 78.86a24.32 24.32 0 1124.32-24.32 24.32 24.32 0 01-24.32 24.31z" fill="#829b47"/><ellipse cx="649.86" cy="806.61" rx="33.45" ry="13.78" transform="rotate(-23.3 403.328 1104.861)" fill="#829b47" opacity=".1"/><ellipse cx="511.39" cy="727.97" rx="7.4" ry="9.68" fill="#3f3d56"/><ellipse cx="511.39" cy="716.13" rx="7.4" ry="9.68" fill="#3f3d56"/><ellipse cx="511.39" cy="704.3" rx="7.4" ry="9.68" fill="#3f3d56"/><ellipse cx="511.39" cy="692.47" rx="7.4" ry="9.68" fill="#3f3d56"/><ellipse cx="511.39" cy="680.63" rx="7.4" ry="9.68" fill="#3f3d56"/><ellipse cx="511.39" cy="668.8" rx="7.4" ry="9.68" fill="#3f3d56"/><ellipse cx="511.39" cy="656.97" rx="7.4" ry="9.68" fill="#3f3d56"/><path d="M483.7 575.98a36.12 36.12 0 01-2.76-4l19.44-3.2-21 .16a35.54 35.54 0 01-.68-28.07l28.2 14.58-26-19.12a35.43 35.43 0 1158.51 39.65 35.55 35.55 0 014 6.46l-25.21 13.11 26.9-9a35.45 35.45 0 01-5.71 33.27 35.43 35.43 0 11-55.69 0 35.44 35.44 0 010-43.81z" fill="#829b47"/><path d="M546.97 597.85a35.28 35.28 0 01-7.58 21.91 35.43 35.43 0 11-55.69 0c-4.75-6 63.27-25.85 63.27-21.91z" opacity=".1"/><ellipse cx="186.29" cy="767.73" rx="19.99" ry="48.53" transform="rotate(-45 28.942 897.852)" fill="#829b47" opacity=".1"/><ellipse cx="51.63" cy="683.7" rx="10.73" ry="14.05" fill="#3f3d56"/><ellipse cx="51.63" cy="666.53" rx="10.73" ry="14.05" fill="#3f3d56"/><ellipse cx="51.63" cy="649.36" rx="10.73" ry="14.05" fill="#3f3d56"/><ellipse cx="51.63" cy="632.19" rx="10.73" ry="14.05" fill="#3f3d56"/><ellipse cx="51.63" cy="615.02" rx="10.73" ry="14.05" fill="#3f3d56"/><ellipse cx="51.63" cy="597.85" rx="10.73" ry="14.05" fill="#3f3d56"/><ellipse cx="51.63" cy="580.68" rx="10.73" ry="14.05" fill="#3f3d56"/><path d="M91.8 463.18a51.13 51.13 0 004-5.88l-28.2-4.63 30.5.22a51.54 51.54 0 001-40.73l-40.91 21.23 37.71-27.74A51.41 51.41 0 1011 463.18a51.16 51.16 0 00-5.86 9.37l36.6 19-39-13.1a51.45 51.45 0 008.29 48.27 51.4 51.4 0 1080.8 0 51.41 51.41 0 000-63.56z" fill="#829b47"/><path d="M0 494.96a51.16 51.16 0 0011 31.78 51.4 51.4 0 1080.8 0C98.69 518 0 489.19 0 494.96z" opacity=".1"/></svg>